<svg width="32" height="31" viewBox="0 0 32 31" fill="none" xmlns="http://www.w3.org/2000/svg">
<g clip-path="url(#clip0_371_104)">
<path d="M27.5899 4.46774C34.4222 10.9574 33.1529 23.6334 24.9168 28.4902C11.3929 36.6068 -5.00291 23.7018 1.44928 8.87981C5.69075 -0.859669 20.1608 -2.92731 27.4922 4.37216L27.5899 4.46774Z" fill="#6AF5B1"/>
<path d="M25.1243 10.0798C26.6886 11.7784 26.5669 14.2676 26.5916 16.4295C26.5916 17.7212 26.5916 19.741 26.5916 20.9457C26.5896 21.4323 26.595 21.7748 26.4792 21.9759C26.2584 22.4611 24.4846 22.2554 23.9466 22.2859C23.0902 22.2686 22.8627 22.0994 22.8834 21.267C22.8794 20.195 22.8828 18.1061 22.8814 16.6518C22.8674 15.4743 22.9336 14.8616 22.7443 13.8912C22.5997 13.2334 22.3154 12.5225 21.7413 12.1508C20.8795 11.5879 19.653 11.7618 18.8969 12.4302C17.8263 13.4133 17.8491 14.9207 17.8558 16.2542C17.8551 17.6143 17.8571 19.9946 17.8544 21.2026C17.8504 21.6374 17.8651 22.1584 17.3205 22.2334C16.745 22.3297 15.7019 22.2958 15.0944 22.2812C14.6521 22.258 14.3818 22.1916 14.264 21.9905C14.1188 21.7542 14.1516 21.2975 14.1456 20.6397C14.1456 20.0729 14.1456 19.5385 14.1456 18.9485C14.1456 18.2044 14.1456 17.451 14.1456 16.7116C14.1262 15.4232 14.2152 14.7674 13.9629 13.704C13.7147 12.5796 12.8957 11.7267 11.6692 11.8169C10.5317 11.8528 9.61773 12.7442 9.34206 13.8056C9.05568 14.8112 9.13598 15.4318 9.11992 16.7228C9.11992 17.7065 9.11992 18.7307 9.11992 19.7131C9.11724 20.4048 9.12594 21.0181 9.11323 21.4356C9.10185 21.6347 9.09048 21.8704 8.97405 22.023C8.78068 22.262 8.4207 22.2587 8.12496 22.2819C7.61175 22.3012 6.88912 22.2965 6.38193 22.2866C5.98248 22.2666 5.38564 22.3012 5.41641 21.7589C5.40036 18.4745 5.41441 11.568 5.41173 9.46785C5.40504 9.09614 5.48533 8.85718 5.93497 8.82134C6.57531 8.77885 7.7884 8.65672 8.38055 9.1114C8.7693 9.3862 8.93658 9.82429 9.32332 9.83292C9.85794 9.81301 10.4963 9.17844 11.0684 9.02511C12.4159 8.53923 14.1416 8.58039 15.3881 9.28133C15.8953 9.56542 16.3034 10.0141 16.6855 10.186C17.471 10.5544 18.1087 9.72672 18.7611 9.4028C20.6687 8.30691 23.586 8.44896 25.1102 10.0632L25.1249 10.0785L25.1243 10.0798Z" fill="#222222"/>
</g>
<defs>
<clipPath id="clip0_371_104">
<rect width="32" height="31" fill="white"/>
</clipPath>
</defs>
</svg>
