<svg width="24" height="24" viewBox="0 0 24 24" fill="none" xmlns="http://www.w3.org/2000/svg">
<path d="M22.6 24C23 24 23.3333 23.8667 23.6 23.6C23.8667 23.3333 24 23 24 22.6V17.2C24 16.9111 23.9 16.65 23.7 16.4167C23.5 16.1833 23.2444 16.0222 22.9333 15.9333L18.3333 15C18.0222 14.9556 17.7056 14.9833 17.3833 15.0833C17.0611 15.1833 16.8 15.3333 16.6 15.5333L13.4667 18.6667C12.6222 18.1778 11.8222 17.6389 11.0667 17.05C10.3111 16.4611 9.58889 15.8222 8.9 15.1333C8.16667 14.4222 7.49444 13.6833 6.88333 12.9167C6.27222 12.15 5.74444 11.3556 5.3 10.5333L8.53333 7.26667C8.71111 7.08889 8.83333 6.87778 8.9 6.63333C8.96667 6.38889 8.97778 6.08889 8.93333 5.73333L8.06667 1.06667C8.02222 0.777778 7.87778 0.527778 7.63333 0.316667C7.38889 0.105556 7.11111 0 6.8 0H1.4C0.999998 0 0.666664 0.133333 0.399998 0.4C0.133331 0.666667 0 1 0 1.4C0 4.17778 0.605555 6.92222 1.81667 9.63333C3.02778 12.3444 4.74444 14.8111 6.96667 17.0333C9.18889 19.2556 11.6556 20.9722 14.3667 22.1833C17.0778 23.3944 19.8222 24 22.6 24ZM4.06667 8C3.68889 7.13333 3.4 6.25556 3.2 5.36667C3 4.47778 2.84444 3.57778 2.73333 2.66667H5.66667L6.26667 5.8L4.06667 8ZM16 19.8667L18.2 17.6667L21.3333 18.3333V21.2667C20.4222 21.2 19.5222 21.0444 18.6333 20.8C17.7444 20.5556 16.8667 20.2444 16 19.8667Z" fill="#00A6FF"/>
</svg>
